<svg width="41" height="41" viewBox="0 0 41 41" fill="none" xmlns="http://www.w3.org/2000/svg">
<path d="M20.0271 36.8349C29.2168 36.9058 36.7523 29.4885 36.8249 20.2987C36.8975 11.109 29.4801 3.57356 20.2887 3.50098C11.1006 3.42842 3.56516 10.8458 3.49092 20.0355C3.41836 29.2252 10.8358 36.7607 20.0271 36.8349ZM20.2624 6.83421C27.6155 6.89227 33.5497 12.921 33.4917 20.2724C33.4336 27.6239 27.4049 33.5581 20.0534 33.5017C12.7003 33.442 6.7661 27.4133 6.82415 20.0618C6.88387 12.7104 12.9126 6.77617 20.2624 6.83421Z" fill="#FEFCD0"/>
<path d="M20.1441 21.8331L26.8105 21.8858L26.8369 18.5526L20.1704 18.4999L20.21 13.4901L13.4825 20.1122L20.1046 26.838L20.1441 21.8331Z" fill="#FEFCD0"/>
</svg>
