<svg width="40" height="40" viewBox="0 0 40 40" fill="none" xmlns="http://www.w3.org/2000/svg">
<path d="M19.9985 3.32178C10.8085 3.32344 3.33179 10.8001 3.33179 19.9901C3.33179 29.1801 10.8085 36.6568 20.0001 36.6568C29.1885 36.6568 36.6651 29.1801 36.6668 19.9901C36.6668 10.8001 29.1901 3.32344 19.9985 3.32178ZM20.0001 33.3234C12.6468 33.3234 6.66512 27.3418 6.66512 19.9901C6.66512 12.6384 12.6468 6.65678 19.9985 6.65511C27.3518 6.65678 33.3335 12.6384 33.3335 19.9901C33.3318 27.3418 27.3501 33.3234 20.0001 33.3234Z" fill="#FEFCD0"/>
<path d="M20 18.3238H13.3334V21.6572H20V26.6672L26.675 19.9922L20 13.3188V18.3238Z" fill="#FEFCD0"/>
</svg>
