<svg width="41" height="41" viewBox="0 0 41 41" fill="none" xmlns="http://www.w3.org/2000/svg">
<path d="M20.0271 36.8347C29.2168 36.9056 36.7523 29.4882 36.8249 20.2985C36.8975 11.1088 29.4801 3.57331 20.2887 3.50073C11.1006 3.42818 3.56516 10.8456 3.49092 20.0353C3.41836 29.225 10.8358 36.7605 20.0271 36.8347ZM20.2624 6.83396C27.6155 6.89203 33.5497 12.9207 33.4917 20.2722C33.4336 27.6236 27.4049 33.5579 20.0534 33.5015C12.7003 33.4417 6.7661 27.413 6.82415 20.0616C6.88387 12.7102 12.9126 6.77593 20.2624 6.83396Z" fill="#FEFCD0"/>
<path d="M20.1441 21.8331L26.8105 21.8858L26.8369 18.5526L20.1704 18.4999L20.21 13.4901L13.4825 20.1122L20.1046 26.838L20.1441 21.8331Z" fill="#FEFCD0"/>
</svg>
