<svg width="23" height="31" viewBox="0 0 23 31" fill="none" xmlns="http://www.w3.org/2000/svg">
<path d="M4.64396 26.9028C4.64347 26.9022 4.64265 26.9012 4.64134 26.8995C4.63853 26.896 4.63356 26.8898 4.62843 26.8815C4.62322 26.8731 4.61869 26.864 4.61481 26.8539L4.61494 26.8543L4.70803 26.8177L4.61464 26.8535L1.23532 18.2397C0.756926 17.0282 1.06217 15.6477 2.00706 14.7511C2.00709 14.751 2.00713 14.751 2.00717 14.751L5.13349 11.7695L5.0853 3.77339C5.0853 3.77338 5.0853 3.77337 5.0853 3.77336C5.07573 2.26017 6.239 1.01257 7.68345 1.00241C9.12896 0.99225 10.315 2.22414 10.3256 3.73863L10.3672 9.64335C10.764 9.36919 11.2357 9.21979 11.7211 9.21726C11.7212 9.21726 11.7213 9.21726 11.7213 9.21726M4.64396 26.9028L13.9659 10.6594C13.5285 9.85644 12.7058 9.31034 11.7688 9.31693L11.7218 9.31726L11.7213 9.21726M4.64396 26.9028C5.72915 28.9519 7.77714 30.2024 9.99129 30.1868L16.4703 30.1413C19.828 30.1176 22.5319 27.207 22.5102 23.6461C22.5007 22.0811 22.4941 20.921 22.4886 19.973L22.4884 19.9293C22.4739 17.412 22.4685 16.472 22.4424 13.6805C22.4281 12.1697 21.2519 10.9609 19.8105 10.971L19.7666 10.9713C19.185 10.9718 18.6235 11.1739 18.176 11.5408M4.64396 26.9028L18.176 11.5408M11.7213 9.21726L11.7681 9.21693C12.736 9.21013 13.5833 9.76833 14.0399 10.5863M11.7213 9.21726L14.0399 10.5863M14.0399 10.5863C14.5042 10.146 15.1199 9.89659 15.7634 9.89207C16.841 9.88449 17.7675 10.5712 18.176 11.5408" fill="#FEFCD0" stroke="#FEFCD0" stroke-width="0.2"/>
</svg>
