<svg width="986" height="519" viewBox="0 0 986 519" fill="none" xmlns="http://www.w3.org/2000/svg" xmlns:xlink="http://www.w3.org/1999/xlink">
<rect x="5.7207" y="17" width="933" height="501.487" fill="url(#pattern0)"/>
<rect y="21.5" width="923.721" height="496.5" fill="url(#pattern1)"/>
<path d="M853.861 149.536V154H850.783V141.274H855.769C857.281 141.274 858.433 141.652 859.225 142.408C860.017 143.152 860.413 144.16 860.413 145.432C860.413 146.224 860.233 146.932 859.873 147.556C859.525 148.168 859.003 148.654 858.307 149.014C857.611 149.362 856.765 149.536 855.769 149.536H853.861ZM855.427 147.07C856.663 147.07 857.281 146.524 857.281 145.432C857.281 144.316 856.663 143.758 855.427 143.758H853.861V147.07H855.427ZM865.743 143.83C866.511 143.83 867.171 144.004 867.723 144.352C868.275 144.7 868.683 145.174 868.947 145.774V143.956H872.007V154H868.947V152.182C868.683 152.782 868.275 153.256 867.723 153.604C867.171 153.952 866.511 154.126 865.743 154.126C864.915 154.126 864.171 153.922 863.511 153.514C862.863 153.094 862.347 152.494 861.963 151.714C861.591 150.934 861.405 150.022 861.405 148.978C861.405 147.922 861.591 147.01 861.963 146.242C862.347 145.462 862.863 144.868 863.511 144.46C864.171 144.04 864.915 143.83 865.743 143.83ZM866.733 146.53C866.073 146.53 865.539 146.746 865.131 147.178C864.735 147.61 864.537 148.21 864.537 148.978C864.537 149.746 864.735 150.346 865.131 150.778C865.539 151.21 866.073 151.426 866.733 151.426C867.381 151.426 867.909 151.204 868.317 150.76C868.737 150.316 868.947 149.722 868.947 148.978C868.947 148.222 868.737 147.628 868.317 147.196C867.909 146.752 867.381 146.53 866.733 146.53ZM878.662 143.83C879.958 143.83 881.044 144.19 881.92 144.91C882.796 145.618 883.348 146.596 883.576 147.844H880.318C880.222 147.412 880.024 147.076 879.724 146.836C879.424 146.596 879.046 146.476 878.59 146.476C878.05 146.476 877.606 146.692 877.258 147.124C876.91 147.544 876.736 148.162 876.736 148.978C876.736 149.794 876.91 150.418 877.258 150.85C877.606 151.27 878.05 151.48 878.59 151.48C879.046 151.48 879.424 151.36 879.724 151.12C880.024 150.88 880.222 150.544 880.318 150.112H883.576C883.348 151.36 882.796 152.344 881.92 153.064C881.044 153.772 879.958 154.126 878.662 154.126C877.678 154.126 876.802 153.922 876.034 153.514C875.278 153.094 874.684 152.494 874.252 151.714C873.82 150.934 873.604 150.022 873.604 148.978C873.604 147.922 873.814 147.01 874.234 146.242C874.666 145.462 875.266 144.868 876.034 144.46C876.802 144.04 877.678 143.83 878.662 143.83ZM884.895 141.13C884.895 140.662 885.063 140.278 885.399 139.978C885.735 139.666 886.179 139.51 886.731 139.51C887.283 139.51 887.727 139.666 888.063 139.978C888.399 140.278 888.567 140.662 888.567 141.13C888.567 141.586 888.399 141.97 888.063 142.282C887.727 142.582 887.283 142.732 886.731 142.732C886.179 142.732 885.735 142.582 885.399 142.282C885.063 141.97 884.895 141.586 884.895 141.13ZM888.261 143.956V154H885.183V143.956H888.261ZM895.318 142.588C894.814 142.588 894.448 142.696 894.22 142.912C893.992 143.128 893.866 143.476 893.842 143.956H895.66V146.548H893.842V154H890.764V146.548H889.558V143.956H890.764V143.848C890.764 142.6 891.124 141.64 891.844 140.968C892.576 140.284 893.632 139.942 895.012 139.942C895.3 139.942 895.516 139.948 895.66 139.96V142.606L895.318 142.588ZM896.725 141.13C896.725 140.662 896.893 140.278 897.229 139.978C897.565 139.666 898.009 139.51 898.561 139.51C899.113 139.51 899.557 139.666 899.893 139.978C900.229 140.278 900.397 140.662 900.397 141.13C900.397 141.586 900.229 141.97 899.893 142.282C899.557 142.582 899.113 142.732 898.561 142.732C898.009 142.732 897.565 142.582 897.229 142.282C896.893 141.97 896.725 141.586 896.725 141.13ZM900.091 143.956V154H897.013V143.956H900.091ZM906.752 143.83C908.048 143.83 909.134 144.19 910.01 144.91C910.886 145.618 911.438 146.596 911.666 147.844H908.408C908.312 147.412 908.114 147.076 907.814 146.836C907.514 146.596 907.136 146.476 906.68 146.476C906.14 146.476 905.696 146.692 905.348 147.124C905 147.544 904.826 148.162 904.826 148.978C904.826 149.794 905 150.418 905.348 150.85C905.696 151.27 906.14 151.48 906.68 151.48C907.136 151.48 907.514 151.36 907.814 151.12C908.114 150.88 908.312 150.544 908.408 150.112H911.666C911.438 151.36 910.886 152.344 910.01 153.064C909.134 153.772 908.048 154.126 906.752 154.126C905.768 154.126 904.892 153.922 904.124 153.514C903.368 153.094 902.774 152.494 902.342 151.714C901.91 150.934 901.694 150.022 901.694 148.978C901.694 147.922 901.904 147.01 902.324 146.242C902.756 145.462 903.356 144.868 904.124 144.46C904.892 144.04 905.768 143.83 906.752 143.83ZM922.924 141.076C924.124 141.076 925.21 141.358 926.182 141.922C927.166 142.474 927.94 143.248 928.504 144.244C929.068 145.228 929.35 146.344 929.35 147.592C929.35 148.84 929.062 149.962 928.486 150.958C927.922 151.954 927.148 152.734 926.164 153.298C925.192 153.85 924.112 154.126 922.924 154.126C921.736 154.126 920.65 153.85 919.666 153.298C918.694 152.734 917.92 151.954 917.344 150.958C916.78 149.962 916.498 148.84 916.498 147.592C916.498 146.344 916.78 145.228 917.344 144.244C917.92 143.248 918.694 142.474 919.666 141.922C920.65 141.358 921.736 141.076 922.924 141.076ZM922.924 143.938C921.916 143.938 921.112 144.268 920.512 144.928C919.924 145.576 919.63 146.464 919.63 147.592C919.63 148.708 919.924 149.596 920.512 150.256C921.112 150.916 921.916 151.246 922.924 151.246C923.92 151.246 924.718 150.916 925.318 150.256C925.918 149.596 926.218 148.708 926.218 147.592C926.218 146.476 925.918 145.588 925.318 144.928C924.73 144.268 923.932 143.938 922.924 143.938ZM935.616 143.83C936.912 143.83 937.998 144.19 938.874 144.91C939.75 145.618 940.302 146.596 940.53 147.844H937.272C937.176 147.412 936.978 147.076 936.678 146.836C936.378 146.596 936 146.476 935.544 146.476C935.004 146.476 934.56 146.692 934.212 147.124C933.864 147.544 933.69 148.162 933.69 148.978C933.69 149.794 933.864 150.418 934.212 150.85C934.56 151.27 935.004 151.48 935.544 151.48C936 151.48 936.378 151.36 936.678 151.12C936.978 150.88 937.176 150.544 937.272 150.112H940.53C940.302 151.36 939.75 152.344 938.874 153.064C937.998 153.772 936.912 154.126 935.616 154.126C934.632 154.126 933.756 153.922 932.988 153.514C932.232 153.094 931.638 152.494 931.206 151.714C930.774 150.934 930.558 150.022 930.558 148.978C930.558 147.922 930.768 147.01 931.188 146.242C931.62 145.462 932.22 144.868 932.988 144.46C933.756 144.04 934.632 143.83 935.616 143.83ZM951.676 148.708C951.676 148.96 951.646 149.236 951.586 149.536H944.62C944.656 150.292 944.848 150.838 945.196 151.174C945.544 151.498 945.988 151.66 946.528 151.66C946.984 151.66 947.362 151.546 947.662 151.318C947.962 151.09 948.16 150.796 948.256 150.436H951.514C951.382 151.144 951.094 151.78 950.65 152.344C950.206 152.896 949.642 153.334 948.958 153.658C948.274 153.97 947.512 154.126 946.672 154.126C945.688 154.126 944.812 153.922 944.044 153.514C943.288 153.094 942.694 152.494 942.262 151.714C941.83 150.934 941.614 150.022 941.614 148.978C941.614 147.922 941.824 147.01 942.244 146.242C942.676 145.462 943.276 144.868 944.044 144.46C944.812 144.04 945.688 143.83 946.672 143.83C947.668 143.83 948.544 144.034 949.3 144.442C950.056 144.85 950.638 145.426 951.046 146.17C951.466 146.902 951.676 147.748 951.676 148.708ZM948.562 148.24C948.574 147.58 948.394 147.088 948.022 146.764C947.662 146.428 947.212 146.26 946.672 146.26C946.108 146.26 945.64 146.428 945.268 146.764C944.896 147.1 944.686 147.592 944.638 148.24H948.562ZM957.097 143.83C957.865 143.83 958.525 144.004 959.077 144.352C959.629 144.7 960.037 145.174 960.301 145.774V143.956H963.361V154H960.301V152.182C960.037 152.782 959.629 153.256 959.077 153.604C958.525 153.952 957.865 154.126 957.097 154.126C956.269 154.126 955.525 153.922 954.865 153.514C954.217 153.094 953.701 152.494 953.317 151.714C952.945 150.934 952.759 150.022 952.759 148.978C952.759 147.922 952.945 147.01 953.317 146.242C953.701 145.462 954.217 144.868 954.865 144.46C955.525 144.04 956.269 143.83 957.097 143.83ZM958.087 146.53C957.427 146.53 956.893 146.746 956.485 147.178C956.089 147.61 955.891 148.21 955.891 148.978C955.891 149.746 956.089 150.346 956.485 150.778C956.893 151.21 957.427 151.426 958.087 151.426C958.735 151.426 959.263 151.204 959.671 150.76C960.091 150.316 960.301 149.722 960.301 148.978C960.301 148.222 960.091 147.628 959.671 147.196C959.263 146.752 958.735 146.53 958.087 146.53ZM971.852 143.848C973.004 143.848 973.916 144.232 974.588 145C975.272 145.768 975.614 146.824 975.614 148.168V154H972.536V148.528C972.536 147.856 972.356 147.334 971.996 146.962C971.648 146.578 971.18 146.386 970.592 146.386C969.968 146.386 969.47 146.584 969.098 146.98C968.738 147.376 968.558 147.94 968.558 148.672V154H965.48V143.956H968.558V145.792C968.846 145.192 969.272 144.718 969.836 144.37C970.412 144.022 971.084 143.848 971.852 143.848Z" fill="white"/>
<path d="M625.667 17.678H620.897L620.105 20H616.865L621.527 7.364H625.073L629.735 20H626.459L625.667 17.678ZM624.875 15.338L623.291 10.658L621.689 15.338H624.875ZM634.009 11.846C634.393 11.234 634.885 10.748 635.485 10.388C636.097 10.028 636.757 9.848 637.465 9.848V13.142H636.583C635.767 13.142 635.131 13.316 634.675 13.664C634.231 14.012 634.009 14.6 634.009 15.428V20H630.931V9.956H634.009V11.846ZM643.289 9.83C644.585 9.83 645.671 10.19 646.547 10.91C647.423 11.618 647.975 12.596 648.203 13.844H644.945C644.849 13.412 644.651 13.076 644.351 12.836C644.051 12.596 643.673 12.476 643.217 12.476C642.677 12.476 642.233 12.692 641.885 13.124C641.537 13.544 641.363 14.162 641.363 14.978C641.363 15.794 641.537 16.418 641.885 16.85C642.233 17.27 642.677 17.48 643.217 17.48C643.673 17.48 644.051 17.36 644.351 17.12C644.651 16.88 644.849 16.544 644.945 16.112H648.203C647.975 17.36 647.423 18.344 646.547 19.064C645.671 19.772 644.585 20.126 643.289 20.126C642.305 20.126 641.429 19.922 640.661 19.514C639.905 19.094 639.311 18.494 638.879 17.714C638.447 16.934 638.231 16.022 638.231 14.978C638.231 13.922 638.441 13.01 638.861 12.242C639.293 11.462 639.893 10.868 640.661 10.46C641.429 10.04 642.305 9.83 643.289 9.83ZM655.498 17.354V20H654.112C652.936 20 652.018 19.712 651.358 19.136C650.71 18.548 650.386 17.582 650.386 16.238V12.548H649.036V9.956H650.386V7.49H653.464V9.956H655.48V12.548H653.464V16.292C653.464 16.688 653.542 16.964 653.698 17.12C653.866 17.276 654.142 17.354 654.526 17.354H655.498ZM656.94 7.13C656.94 6.662 657.108 6.278 657.444 5.978C657.78 5.666 658.224 5.51 658.776 5.51C659.328 5.51 659.772 5.666 660.108 5.978C660.444 6.278 660.612 6.662 660.612 7.13C660.612 7.586 660.444 7.97 660.108 8.282C659.772 8.582 659.328 8.732 658.776 8.732C658.224 8.732 657.78 8.582 657.444 8.282C657.108 7.97 656.94 7.586 656.94 7.13ZM660.306 9.956V20H657.228V9.956H660.306ZM666.967 9.83C668.263 9.83 669.349 10.19 670.225 10.91C671.101 11.618 671.653 12.596 671.881 13.844H668.623C668.527 13.412 668.329 13.076 668.029 12.836C667.729 12.596 667.351 12.476 666.895 12.476C666.355 12.476 665.911 12.692 665.563 13.124C665.215 13.544 665.041 14.162 665.041 14.978C665.041 15.794 665.215 16.418 665.563 16.85C665.911 17.27 666.355 17.48 666.895 17.48C667.351 17.48 667.729 17.36 668.029 17.12C668.329 16.88 668.527 16.544 668.623 16.112H671.881C671.653 17.36 671.101 18.344 670.225 19.064C669.349 19.772 668.263 20.126 666.967 20.126C665.983 20.126 665.107 19.922 664.339 19.514C663.583 19.094 662.989 18.494 662.557 17.714C662.125 16.934 661.909 16.022 661.909 14.978C661.909 13.922 662.119 13.01 662.539 12.242C662.971 11.462 663.571 10.868 664.339 10.46C665.107 10.04 665.983 9.83 666.967 9.83ZM683.139 7.076C684.339 7.076 685.425 7.358 686.397 7.922C687.381 8.474 688.155 9.248 688.719 10.244C689.283 11.228 689.565 12.344 689.565 13.592C689.565 14.84 689.277 15.962 688.701 16.958C688.137 17.954 687.363 18.734 686.379 19.298C685.407 19.85 684.327 20.126 683.139 20.126C681.951 20.126 680.865 19.85 679.881 19.298C678.909 18.734 678.135 17.954 677.559 16.958C676.995 15.962 676.713 14.84 676.713 13.592C676.713 12.344 676.995 11.228 677.559 10.244C678.135 9.248 678.909 8.474 679.881 7.922C680.865 7.358 681.951 7.076 683.139 7.076ZM683.139 9.938C682.131 9.938 681.327 10.268 680.727 10.928C680.139 11.576 679.845 12.464 679.845 13.592C679.845 14.708 680.139 15.596 680.727 16.256C681.327 16.916 682.131 17.246 683.139 17.246C684.135 17.246 684.933 16.916 685.533 16.256C686.133 15.596 686.433 14.708 686.433 13.592C686.433 12.476 686.133 11.588 685.533 10.928C684.945 10.268 684.147 9.938 683.139 9.938ZM695.83 9.83C697.126 9.83 698.212 10.19 699.088 10.91C699.964 11.618 700.516 12.596 700.744 13.844H697.486C697.39 13.412 697.192 13.076 696.892 12.836C696.592 12.596 696.214 12.476 695.758 12.476C695.218 12.476 694.774 12.692 694.426 13.124C694.078 13.544 693.904 14.162 693.904 14.978C693.904 15.794 694.078 16.418 694.426 16.85C694.774 17.27 695.218 17.48 695.758 17.48C696.214 17.48 696.592 17.36 696.892 17.12C697.192 16.88 697.39 16.544 697.486 16.112H700.744C700.516 17.36 699.964 18.344 699.088 19.064C698.212 19.772 697.126 20.126 695.83 20.126C694.846 20.126 693.97 19.922 693.202 19.514C692.446 19.094 691.852 18.494 691.42 17.714C690.988 16.934 690.772 16.022 690.772 14.978C690.772 13.922 690.982 13.01 691.402 12.242C691.834 11.462 692.434 10.868 693.202 10.46C693.97 10.04 694.846 9.83 695.83 9.83ZM711.891 14.708C711.891 14.96 711.861 15.236 711.801 15.536H704.835C704.871 16.292 705.063 16.838 705.411 17.174C705.759 17.498 706.203 17.66 706.743 17.66C707.199 17.66 707.577 17.546 707.877 17.318C708.177 17.09 708.375 16.796 708.471 16.436H711.729C711.597 17.144 711.309 17.78 710.865 18.344C710.421 18.896 709.857 19.334 709.173 19.658C708.489 19.97 707.727 20.126 706.887 20.126C705.903 20.126 705.027 19.922 704.259 19.514C703.503 19.094 702.909 18.494 702.477 17.714C702.045 16.934 701.829 16.022 701.829 14.978C701.829 13.922 702.039 13.01 702.459 12.242C702.891 11.462 703.491 10.868 704.259 10.46C705.027 10.04 705.903 9.83 706.887 9.83C707.883 9.83 708.759 10.034 709.515 10.442C710.271 10.85 710.853 11.426 711.261 12.17C711.681 12.902 711.891 13.748 711.891 14.708ZM708.777 14.24C708.789 13.58 708.609 13.088 708.237 12.764C707.877 12.428 707.427 12.26 706.887 12.26C706.323 12.26 705.855 12.428 705.483 12.764C705.111 13.1 704.901 13.592 704.853 14.24H708.777ZM717.312 9.83C718.08 9.83 718.74 10.004 719.292 10.352C719.844 10.7 720.252 11.174 720.516 11.774V9.956H723.576V20H720.516V18.182C720.252 18.782 719.844 19.256 719.292 19.604C718.74 19.952 718.08 20.126 717.312 20.126C716.484 20.126 715.74 19.922 715.08 19.514C714.432 19.094 713.916 18.494 713.532 17.714C713.16 16.934 712.974 16.022 712.974 14.978C712.974 13.922 713.16 13.01 713.532 12.242C713.916 11.462 714.432 10.868 715.08 10.46C715.74 10.04 716.484 9.83 717.312 9.83ZM718.302 12.53C717.642 12.53 717.108 12.746 716.7 13.178C716.304 13.61 716.106 14.21 716.106 14.978C716.106 15.746 716.304 16.346 716.7 16.778C717.108 17.21 717.642 17.426 718.302 17.426C718.95 17.426 719.478 17.204 719.886 16.76C720.306 16.316 720.516 15.722 720.516 14.978C720.516 14.222 720.306 13.628 719.886 13.196C719.478 12.752 718.95 12.53 718.302 12.53ZM732.067 9.848C733.219 9.848 734.131 10.232 734.803 11C735.487 11.768 735.829 12.824 735.829 14.168V20H732.751V14.528C732.751 13.856 732.571 13.334 732.211 12.962C731.863 12.578 731.395 12.386 730.807 12.386C730.183 12.386 729.685 12.584 729.313 12.98C728.953 13.376 728.773 13.94 728.773 14.672V20H725.695V9.956H728.773V11.792C729.061 11.192 729.487 10.718 730.051 10.37C730.627 10.022 731.299 9.848 732.067 9.848Z" fill="white"/>
<path d="M258.087 217H255.009L249.861 209.188V217H246.783V204.274H249.861L255.009 212.158V204.274H258.087V217ZM264.91 206.83C265.906 206.83 266.794 207.04 267.574 207.46C268.366 207.868 268.984 208.462 269.428 209.242C269.884 210.022 270.112 210.934 270.112 211.978C270.112 213.022 269.884 213.934 269.428 214.714C268.984 215.494 268.366 216.094 267.574 216.514C266.794 216.922 265.906 217.126 264.91 217.126C263.914 217.126 263.02 216.922 262.228 216.514C261.436 216.094 260.812 215.494 260.356 214.714C259.912 213.934 259.69 213.022 259.69 211.978C259.69 210.934 259.912 210.022 260.356 209.242C260.812 208.462 261.436 207.868 262.228 207.46C263.02 207.04 263.914 206.83 264.91 206.83ZM264.91 209.494C264.322 209.494 263.824 209.71 263.416 210.142C263.02 210.562 262.822 211.174 262.822 211.978C262.822 212.782 263.02 213.394 263.416 213.814C263.824 214.234 264.322 214.444 264.91 214.444C265.498 214.444 265.99 214.234 266.386 213.814C266.782 213.394 266.98 212.782 266.98 211.978C266.98 211.174 266.782 210.562 266.386 210.142C265.99 209.71 265.498 209.494 264.91 209.494ZM274.786 208.846C275.17 208.234 275.662 207.748 276.262 207.388C276.874 207.028 277.534 206.848 278.242 206.848V210.142H277.36C276.544 210.142 275.908 210.316 275.452 210.664C275.008 211.012 274.786 211.6 274.786 212.428V217H271.708V206.956H274.786V208.846ZM285.219 214.354V217H283.833C282.657 217 281.739 216.712 281.079 216.136C280.431 215.548 280.107 214.582 280.107 213.238V209.548H278.757V206.956H280.107V204.49H283.185V206.956H285.201V209.548H283.185V213.292C283.185 213.688 283.263 213.964 283.419 214.12C283.587 214.276 283.863 214.354 284.247 214.354H285.219ZM293.321 206.848C294.473 206.848 295.385 207.232 296.057 208C296.741 208.768 297.083 209.824 297.083 211.168V217H294.005V211.528C294.005 210.856 293.825 210.334 293.465 209.962C293.117 209.578 292.649 209.386 292.061 209.386C291.437 209.386 290.939 209.584 290.567 209.98C290.207 210.376 290.027 210.94 290.027 211.672V217H286.949V203.68H290.027V208.792C290.315 208.192 290.741 207.718 291.305 207.37C291.881 207.022 292.553 206.848 293.321 206.848ZM310.6 214.678H305.83L305.038 217H301.798L306.46 204.364H310.006L314.668 217H311.392L310.6 214.678ZM309.808 212.338L308.224 207.658L306.622 212.338H309.808ZM321.553 214.354V217H320.167C318.991 217 318.073 216.712 317.413 216.136C316.765 215.548 316.441 214.582 316.441 213.238V209.548H315.091V206.956H316.441V204.49H319.519V206.956H321.535V209.548H319.519V213.292C319.519 213.688 319.597 213.964 319.753 214.12C319.921 214.276 320.197 214.354 320.581 214.354H321.553ZM326.361 203.68V217H323.283V203.68H326.361ZM332.302 206.83C333.07 206.83 333.73 207.004 334.282 207.352C334.834 207.7 335.242 208.174 335.506 208.774V206.956H338.566V217H335.506V215.182C335.242 215.782 334.834 216.256 334.282 216.604C333.73 216.952 333.07 217.126 332.302 217.126C331.474 217.126 330.73 216.922 330.07 216.514C329.422 216.094 328.906 215.494 328.522 214.714C328.15 213.934 327.964 213.022 327.964 211.978C327.964 210.922 328.15 210.01 328.522 209.242C328.906 208.462 329.422 207.868 330.07 207.46C330.73 207.04 331.474 206.83 332.302 206.83ZM333.292 209.53C332.632 209.53 332.098 209.746 331.69 210.178C331.294 210.61 331.096 211.21 331.096 211.978C331.096 212.746 331.294 213.346 331.69 213.778C332.098 214.21 332.632 214.426 333.292 214.426C333.94 214.426 334.468 214.204 334.876 213.76C335.296 213.316 335.506 212.722 335.506 211.978C335.506 211.222 335.296 210.628 334.876 210.196C334.468 209.752 333.94 209.53 333.292 209.53ZM347.057 206.848C348.209 206.848 349.121 207.232 349.793 208C350.477 208.768 350.819 209.824 350.819 211.168V217H347.741V211.528C347.741 210.856 347.561 210.334 347.201 209.962C346.853 209.578 346.385 209.386 345.797 209.386C345.173 209.386 344.675 209.584 344.303 209.98C343.943 210.376 343.763 210.94 343.763 211.672V217H340.685V206.956H343.763V208.792C344.051 208.192 344.477 207.718 345.041 207.37C345.617 207.022 346.289 206.848 347.057 206.848ZM358.537 214.354V217H357.151C355.975 217 355.057 216.712 354.397 216.136C353.749 215.548 353.425 214.582 353.425 213.238V209.548H352.075V206.956H353.425V204.49H356.503V206.956H358.519V209.548H356.503V213.292C356.503 213.688 356.581 213.964 356.737 214.12C356.905 214.276 357.181 214.354 357.565 214.354H358.537ZM359.979 204.13C359.979 203.662 360.147 203.278 360.483 202.978C360.819 202.666 361.263 202.51 361.815 202.51C362.367 202.51 362.811 202.666 363.147 202.978C363.483 203.278 363.651 203.662 363.651 204.13C363.651 204.586 363.483 204.97 363.147 205.282C362.811 205.582 362.367 205.732 361.815 205.732C361.263 205.732 360.819 205.582 360.483 205.282C360.147 204.97 359.979 204.586 359.979 204.13ZM363.345 206.956V217H360.267V206.956H363.345ZM370.006 206.83C371.302 206.83 372.388 207.19 373.264 207.91C374.14 208.618 374.692 209.596 374.92 210.844H371.662C371.566 210.412 371.368 210.076 371.068 209.836C370.768 209.596 370.39 209.476 369.934 209.476C369.394 209.476 368.95 209.692 368.602 210.124C368.254 210.544 368.08 211.162 368.08 211.978C368.08 212.794 368.254 213.418 368.602 213.85C368.95 214.27 369.394 214.48 369.934 214.48C370.39 214.48 370.768 214.36 371.068 214.12C371.368 213.88 371.566 213.544 371.662 213.112H374.92C374.692 214.36 374.14 215.344 373.264 216.064C372.388 216.772 371.302 217.126 370.006 217.126C369.022 217.126 368.146 216.922 367.378 216.514C366.622 216.094 366.028 215.494 365.596 214.714C365.164 213.934 364.948 213.022 364.948 211.978C364.948 210.922 365.158 210.01 365.578 209.242C366.01 208.462 366.61 207.868 367.378 207.46C368.146 207.04 369.022 206.83 370.006 206.83ZM252.831 231.076C254.031 231.076 255.117 231.358 256.089 231.922C257.073 232.474 257.847 233.248 258.411 234.244C258.975 235.228 259.257 236.344 259.257 237.592C259.257 238.84 258.969 239.962 258.393 240.958C257.829 241.954 257.055 242.734 256.071 243.298C255.099 243.85 254.019 244.126 252.831 244.126C251.643 244.126 250.557 243.85 249.573 243.298C248.601 242.734 247.827 241.954 247.251 240.958C246.687 239.962 246.405 238.84 246.405 237.592C246.405 236.344 246.687 235.228 247.251 234.244C247.827 233.248 248.601 232.474 249.573 231.922C250.557 231.358 251.643 231.076 252.831 231.076ZM252.831 233.938C251.823 233.938 251.019 234.268 250.419 234.928C249.831 235.576 249.537 236.464 249.537 237.592C249.537 238.708 249.831 239.596 250.419 240.256C251.019 240.916 251.823 241.246 252.831 241.246C253.827 241.246 254.625 240.916 255.225 240.256C255.825 239.596 256.125 238.708 256.125 237.592C256.125 236.476 255.825 235.588 255.225 234.928C254.637 234.268 253.839 233.938 252.831 233.938ZM265.522 233.83C266.818 233.83 267.904 234.19 268.78 234.91C269.656 235.618 270.208 236.596 270.436 237.844H267.178C267.082 237.412 266.884 237.076 266.584 236.836C266.284 236.596 265.906 236.476 265.45 236.476C264.91 236.476 264.466 236.692 264.118 237.124C263.77 237.544 263.596 238.162 263.596 238.978C263.596 239.794 263.77 240.418 264.118 240.85C264.466 241.27 264.91 241.48 265.45 241.48C265.906 241.48 266.284 241.36 266.584 241.12C266.884 240.88 267.082 240.544 267.178 240.112H270.436C270.208 241.36 269.656 242.344 268.78 243.064C267.904 243.772 266.818 244.126 265.522 244.126C264.538 244.126 263.662 243.922 262.894 243.514C262.138 243.094 261.544 242.494 261.112 241.714C260.68 240.934 260.464 240.022 260.464 238.978C260.464 237.922 260.674 237.01 261.094 236.242C261.526 235.462 262.126 234.868 262.894 234.46C263.662 234.04 264.538 233.83 265.522 233.83ZM281.582 238.708C281.582 238.96 281.552 239.236 281.492 239.536H274.526C274.562 240.292 274.754 240.838 275.102 241.174C275.45 241.498 275.894 241.66 276.434 241.66C276.89 241.66 277.268 241.546 277.568 241.318C277.868 241.09 278.066 240.796 278.162 240.436H281.42C281.288 241.144 281 241.78 280.556 242.344C280.112 242.896 279.548 243.334 278.864 243.658C278.18 243.97 277.418 244.126 276.578 244.126C275.594 244.126 274.718 243.922 273.95 243.514C273.194 243.094 272.6 242.494 272.168 241.714C271.736 240.934 271.52 240.022 271.52 238.978C271.52 237.922 271.73 237.01 272.15 236.242C272.582 235.462 273.182 234.868 273.95 234.46C274.718 234.04 275.594 233.83 276.578 233.83C277.574 233.83 278.45 234.034 279.206 234.442C279.962 234.85 280.544 235.426 280.952 236.17C281.372 236.902 281.582 237.748 281.582 238.708ZM278.468 238.24C278.48 237.58 278.3 237.088 277.928 236.764C277.568 236.428 277.118 236.26 276.578 236.26C276.014 236.26 275.546 236.428 275.174 236.764C274.802 237.1 274.592 237.592 274.544 238.24H278.468ZM287.003 233.83C287.771 233.83 288.431 234.004 288.983 234.352C289.535 234.7 289.943 235.174 290.207 235.774V233.956H293.267V244H290.207V242.182C289.943 242.782 289.535 243.256 288.983 243.604C288.431 243.952 287.771 244.126 287.003 244.126C286.175 244.126 285.431 243.922 284.771 243.514C284.123 243.094 283.607 242.494 283.223 241.714C282.851 240.934 282.665 240.022 282.665 238.978C282.665 237.922 282.851 237.01 283.223 236.242C283.607 235.462 284.123 234.868 284.771 234.46C285.431 234.04 286.175 233.83 287.003 233.83ZM287.993 236.53C287.333 236.53 286.799 236.746 286.391 237.178C285.995 237.61 285.797 238.21 285.797 238.978C285.797 239.746 285.995 240.346 286.391 240.778C286.799 241.21 287.333 241.426 287.993 241.426C288.641 241.426 289.169 241.204 289.577 240.76C289.997 240.316 290.207 239.722 290.207 238.978C290.207 238.222 289.997 237.628 289.577 237.196C289.169 236.752 288.641 236.53 287.993 236.53ZM301.758 233.848C302.91 233.848 303.822 234.232 304.494 235C305.178 235.768 305.52 236.824 305.52 238.168V244H302.442V238.528C302.442 237.856 302.262 237.334 301.902 236.962C301.554 236.578 301.086 236.386 300.498 236.386C299.874 236.386 299.376 236.584 299.004 236.98C298.644 237.376 298.464 237.94 298.464 238.672V244H295.386V233.956H298.464V235.792C298.752 235.192 299.178 234.718 299.742 234.37C300.318 234.022 300.99 233.848 301.758 233.848Z" fill="white"/>
<path d="M55.8607 338.536V343H52.7827V330.274H57.7687C59.2807 330.274 60.4327 330.652 61.2247 331.408C62.0167 332.152 62.4127 333.16 62.4127 334.432C62.4127 335.224 62.2327 335.932 61.8727 336.556C61.5247 337.168 61.0027 337.654 60.3067 338.014C59.6107 338.362 58.7647 338.536 57.7687 338.536H55.8607ZM57.4267 336.07C58.6627 336.07 59.2807 335.524 59.2807 334.432C59.2807 333.316 58.6627 332.758 57.4267 332.758H55.8607V336.07H57.4267ZM67.7432 332.83C68.5112 332.83 69.1712 333.004 69.7232 333.352C70.2752 333.7 70.6832 334.174 70.9472 334.774V332.956H74.0072V343H70.9472V341.182C70.6832 341.782 70.2752 342.256 69.7232 342.604C69.1712 342.952 68.5112 343.126 67.7432 343.126C66.9152 343.126 66.1712 342.922 65.5112 342.514C64.8632 342.094 64.3472 341.494 63.9632 340.714C63.5912 339.934 63.4052 339.022 63.4052 337.978C63.4052 336.922 63.5912 336.01 63.9632 335.242C64.3472 334.462 64.8632 333.868 65.5112 333.46C66.1712 333.04 66.9152 332.83 67.7432 332.83ZM68.7332 335.53C68.0732 335.53 67.5392 335.746 67.1312 336.178C66.7352 336.61 66.5372 337.21 66.5372 337.978C66.5372 338.746 66.7352 339.346 67.1312 339.778C67.5392 340.21 68.0732 340.426 68.7332 340.426C69.3812 340.426 69.9092 340.204 70.3172 339.76C70.7372 339.316 70.9472 338.722 70.9472 337.978C70.9472 337.222 70.7372 336.628 70.3172 336.196C69.9092 335.752 69.3812 335.53 68.7332 335.53ZM80.6625 332.83C81.9585 332.83 83.0445 333.19 83.9205 333.91C84.7965 334.618 85.3485 335.596 85.5765 336.844H82.3185C82.2225 336.412 82.0245 336.076 81.7245 335.836C81.4245 335.596 81.0465 335.476 80.5905 335.476C80.0505 335.476 79.6065 335.692 79.2585 336.124C78.9105 336.544 78.7365 337.162 78.7365 337.978C78.7365 338.794 78.9105 339.418 79.2585 339.85C79.6065 340.27 80.0505 340.48 80.5905 340.48C81.0465 340.48 81.4245 340.36 81.7245 340.12C82.0245 339.88 82.2225 339.544 82.3185 339.112H85.5765C85.3485 340.36 84.7965 341.344 83.9205 342.064C83.0445 342.772 81.9585 343.126 80.6625 343.126C79.6785 343.126 78.8025 342.922 78.0345 342.514C77.2785 342.094 76.6845 341.494 76.2525 340.714C75.8205 339.934 75.6045 339.022 75.6045 337.978C75.6045 336.922 75.8145 336.01 76.2345 335.242C76.6665 334.462 77.2665 333.868 78.0345 333.46C78.8025 333.04 79.6785 332.83 80.6625 332.83ZM86.8951 330.13C86.8951 329.662 87.0631 329.278 87.3991 328.978C87.7351 328.666 88.1791 328.51 88.7311 328.51C89.2831 328.51 89.7271 328.666 90.0631 328.978C90.3991 329.278 90.5671 329.662 90.5671 330.13C90.5671 330.586 90.3991 330.97 90.0631 331.282C89.7271 331.582 89.2831 331.732 88.7311 331.732C88.1791 331.732 87.7351 331.582 87.3991 331.282C87.0631 330.97 86.8951 330.586 86.8951 330.13ZM90.2611 332.956V343H87.1831V332.956H90.2611ZM97.3182 331.588C96.8142 331.588 96.4482 331.696 96.2202 331.912C95.9922 332.128 95.8662 332.476 95.8422 332.956H97.6602V335.548H95.8422V343H92.7642V335.548H91.5582V332.956H92.7642V332.848C92.7642 331.6 93.1242 330.64 93.8442 329.968C94.5762 329.284 95.6322 328.942 97.0122 328.942C97.3002 328.942 97.5162 328.948 97.6602 328.96V331.606L97.3182 331.588ZM98.7252 330.13C98.7252 329.662 98.8932 329.278 99.2292 328.978C99.5652 328.666 100.009 328.51 100.561 328.51C101.113 328.51 101.557 328.666 101.893 328.978C102.229 329.278 102.397 329.662 102.397 330.13C102.397 330.586 102.229 330.97 101.893 331.282C101.557 331.582 101.113 331.732 100.561 331.732C100.009 331.732 99.5652 331.582 99.2292 331.282C98.8932 330.97 98.7252 330.586 98.7252 330.13ZM102.091 332.956V343H99.0132V332.956H102.091ZM108.752 332.83C110.048 332.83 111.134 333.19 112.01 333.91C112.886 334.618 113.438 335.596 113.666 336.844H110.408C110.312 336.412 110.114 336.076 109.814 335.836C109.514 335.596 109.136 335.476 108.68 335.476C108.14 335.476 107.696 335.692 107.348 336.124C107 336.544 106.826 337.162 106.826 337.978C106.826 338.794 107 339.418 107.348 339.85C107.696 340.27 108.14 340.48 108.68 340.48C109.136 340.48 109.514 340.36 109.814 340.12C110.114 339.88 110.312 339.544 110.408 339.112H113.666C113.438 340.36 112.886 341.344 112.01 342.064C111.134 342.772 110.048 343.126 108.752 343.126C107.768 343.126 106.892 342.922 106.124 342.514C105.368 342.094 104.774 341.494 104.342 340.714C103.91 339.934 103.694 339.022 103.694 337.978C103.694 336.922 103.904 336.01 104.324 335.242C104.756 334.462 105.356 333.868 106.124 333.46C106.892 333.04 107.768 332.83 108.752 332.83ZM124.924 330.076C126.124 330.076 127.21 330.358 128.182 330.922C129.166 331.474 129.94 332.248 130.504 333.244C131.068 334.228 131.35 335.344 131.35 336.592C131.35 337.84 131.062 338.962 130.486 339.958C129.922 340.954 129.148 341.734 128.164 342.298C127.192 342.85 126.112 343.126 124.924 343.126C123.736 343.126 122.65 342.85 121.666 342.298C120.694 341.734 119.92 340.954 119.344 339.958C118.78 338.962 118.498 337.84 118.498 336.592C118.498 335.344 118.78 334.228 119.344 333.244C119.92 332.248 120.694 331.474 121.666 330.922C122.65 330.358 123.736 330.076 124.924 330.076ZM124.924 332.938C123.916 332.938 123.112 333.268 122.512 333.928C121.924 334.576 121.63 335.464 121.63 336.592C121.63 337.708 121.924 338.596 122.512 339.256C123.112 339.916 123.916 340.246 124.924 340.246C125.92 340.246 126.718 339.916 127.318 339.256C127.918 338.596 128.218 337.708 128.218 336.592C128.218 335.476 127.918 334.588 127.318 333.928C126.73 333.268 125.932 332.938 124.924 332.938ZM137.616 332.83C138.912 332.83 139.998 333.19 140.874 333.91C141.75 334.618 142.302 335.596 142.53 336.844H139.272C139.176 336.412 138.978 336.076 138.678 335.836C138.378 335.596 138 335.476 137.544 335.476C137.004 335.476 136.56 335.692 136.212 336.124C135.864 336.544 135.69 337.162 135.69 337.978C135.69 338.794 135.864 339.418 136.212 339.85C136.56 340.27 137.004 340.48 137.544 340.48C138 340.48 138.378 340.36 138.678 340.12C138.978 339.88 139.176 339.544 139.272 339.112H142.53C142.302 340.36 141.75 341.344 140.874 342.064C139.998 342.772 138.912 343.126 137.616 343.126C136.632 343.126 135.756 342.922 134.988 342.514C134.232 342.094 133.638 341.494 133.206 340.714C132.774 339.934 132.558 339.022 132.558 337.978C132.558 336.922 132.768 336.01 133.188 335.242C133.62 334.462 134.22 333.868 134.988 333.46C135.756 333.04 136.632 332.83 137.616 332.83ZM153.676 337.708C153.676 337.96 153.646 338.236 153.586 338.536H146.62C146.656 339.292 146.848 339.838 147.196 340.174C147.544 340.498 147.988 340.66 148.528 340.66C148.984 340.66 149.362 340.546 149.662 340.318C149.962 340.09 150.16 339.796 150.256 339.436H153.514C153.382 340.144 153.094 340.78 152.65 341.344C152.206 341.896 151.642 342.334 150.958 342.658C150.274 342.97 149.512 343.126 148.672 343.126C147.688 343.126 146.812 342.922 146.044 342.514C145.288 342.094 144.694 341.494 144.262 340.714C143.83 339.934 143.614 339.022 143.614 337.978C143.614 336.922 143.824 336.01 144.244 335.242C144.676 334.462 145.276 333.868 146.044 333.46C146.812 333.04 147.688 332.83 148.672 332.83C149.668 332.83 150.544 333.034 151.3 333.442C152.056 333.85 152.638 334.426 153.046 335.17C153.466 335.902 153.676 336.748 153.676 337.708ZM150.562 337.24C150.574 336.58 150.394 336.088 150.022 335.764C149.662 335.428 149.212 335.26 148.672 335.26C148.108 335.26 147.64 335.428 147.268 335.764C146.896 336.1 146.686 336.592 146.638 337.24H150.562ZM159.097 332.83C159.865 332.83 160.525 333.004 161.077 333.352C161.629 333.7 162.037 334.174 162.301 334.774V332.956H165.361V343H162.301V341.182C162.037 341.782 161.629 342.256 161.077 342.604C160.525 342.952 159.865 343.126 159.097 343.126C158.269 343.126 157.525 342.922 156.865 342.514C156.217 342.094 155.701 341.494 155.317 340.714C154.945 339.934 154.759 339.022 154.759 337.978C154.759 336.922 154.945 336.01 155.317 335.242C155.701 334.462 156.217 333.868 156.865 333.46C157.525 333.04 158.269 332.83 159.097 332.83ZM160.087 335.53C159.427 335.53 158.893 335.746 158.485 336.178C158.089 336.61 157.891 337.21 157.891 337.978C157.891 338.746 158.089 339.346 158.485 339.778C158.893 340.21 159.427 340.426 160.087 340.426C160.735 340.426 161.263 340.204 161.671 339.76C162.091 339.316 162.301 338.722 162.301 337.978C162.301 337.222 162.091 336.628 161.671 336.196C161.263 335.752 160.735 335.53 160.087 335.53ZM173.852 332.848C175.004 332.848 175.916 333.232 176.588 334C177.272 334.768 177.614 335.824 177.614 337.168V343H174.536V337.528C174.536 336.856 174.356 336.334 173.996 335.962C173.648 335.578 173.18 335.386 172.592 335.386C171.968 335.386 171.47 335.584 171.098 335.98C170.738 336.376 170.558 336.94 170.558 337.672V343H167.48V332.956H170.558V334.792C170.846 334.192 171.272 333.718 171.836 333.37C172.412 333.022 173.084 332.848 173.852 332.848Z" fill="white"/>
<path d="M320.667 411.678H315.897L315.105 414H311.865L316.527 401.364H320.073L324.735 414H321.459L320.667 411.678ZM319.875 409.338L318.291 404.658L316.689 409.338H319.875ZM331.619 411.354V414H330.233C329.057 414 328.139 413.712 327.479 413.136C326.831 412.548 326.507 411.582 326.507 410.238V406.548H325.157V403.956H326.507V401.49H329.585V403.956H331.601V406.548H329.585V410.292C329.585 410.688 329.663 410.964 329.819 411.12C329.987 411.276 330.263 411.354 330.647 411.354H331.619ZM336.427 400.68V414H333.349V400.68H336.427ZM342.368 403.83C343.136 403.83 343.796 404.004 344.348 404.352C344.9 404.7 345.308 405.174 345.572 405.774V403.956H348.632V414H345.572V412.182C345.308 412.782 344.9 413.256 344.348 413.604C343.796 413.952 343.136 414.126 342.368 414.126C341.54 414.126 340.796 413.922 340.136 413.514C339.488 413.094 338.972 412.494 338.588 411.714C338.216 410.934 338.03 410.022 338.03 408.978C338.03 407.922 338.216 407.01 338.588 406.242C338.972 405.462 339.488 404.868 340.136 404.46C340.796 404.04 341.54 403.83 342.368 403.83ZM343.358 406.53C342.698 406.53 342.164 406.746 341.756 407.178C341.36 407.61 341.162 408.21 341.162 408.978C341.162 409.746 341.36 410.346 341.756 410.778C342.164 411.21 342.698 411.426 343.358 411.426C344.006 411.426 344.534 411.204 344.942 410.76C345.362 410.316 345.572 409.722 345.572 408.978C345.572 408.222 345.362 407.628 344.942 407.196C344.534 406.752 344.006 406.53 343.358 406.53ZM357.123 403.848C358.275 403.848 359.187 404.232 359.859 405C360.543 405.768 360.885 406.824 360.885 408.168V414H357.807V408.528C357.807 407.856 357.627 407.334 357.267 406.962C356.919 406.578 356.451 406.386 355.863 406.386C355.239 406.386 354.741 406.584 354.369 406.98C354.009 407.376 353.829 407.94 353.829 408.672V414H350.751V403.956H353.829V405.792C354.117 405.192 354.543 404.718 355.107 404.37C355.683 404.022 356.355 403.848 357.123 403.848ZM368.604 411.354V414H367.218C366.042 414 365.124 413.712 364.464 413.136C363.816 412.548 363.492 411.582 363.492 410.238V406.548H362.142V403.956H363.492V401.49H366.57V403.956H368.586V406.548H366.57V410.292C366.57 410.688 366.648 410.964 366.804 411.12C366.972 411.276 367.248 411.354 367.632 411.354H368.604ZM370.045 401.13C370.045 400.662 370.213 400.278 370.549 399.978C370.885 399.666 371.329 399.51 371.881 399.51C372.433 399.51 372.877 399.666 373.213 399.978C373.549 400.278 373.717 400.662 373.717 401.13C373.717 401.586 373.549 401.97 373.213 402.282C372.877 402.582 372.433 402.732 371.881 402.732C371.329 402.732 370.885 402.582 370.549 402.282C370.213 401.97 370.045 401.586 370.045 401.13ZM373.411 403.956V414H370.333V403.956H373.411ZM380.073 403.83C381.369 403.83 382.455 404.19 383.331 404.91C384.207 405.618 384.759 406.596 384.987 407.844H381.729C381.633 407.412 381.435 407.076 381.135 406.836C380.835 406.596 380.457 406.476 380.001 406.476C379.461 406.476 379.017 406.692 378.669 407.124C378.321 407.544 378.147 408.162 378.147 408.978C378.147 409.794 378.321 410.418 378.669 410.85C379.017 411.27 379.461 411.48 380.001 411.48C380.457 411.48 380.835 411.36 381.135 411.12C381.435 410.88 381.633 410.544 381.729 410.112H384.987C384.759 411.36 384.207 412.344 383.331 413.064C382.455 413.772 381.369 414.126 380.073 414.126C379.089 414.126 378.213 413.922 377.445 413.514C376.689 413.094 376.095 412.494 375.663 411.714C375.231 410.934 375.015 410.022 375.015 408.978C375.015 407.922 375.225 407.01 375.645 406.242C376.077 405.462 376.677 404.868 377.445 404.46C378.213 404.04 379.089 403.83 380.073 403.83ZM396.245 401.076C397.445 401.076 398.531 401.358 399.503 401.922C400.487 402.474 401.261 403.248 401.825 404.244C402.389 405.228 402.671 406.344 402.671 407.592C402.671 408.84 402.383 409.962 401.807 410.958C401.243 411.954 400.469 412.734 399.485 413.298C398.513 413.85 397.433 414.126 396.245 414.126C395.057 414.126 393.971 413.85 392.987 413.298C392.015 412.734 391.241 411.954 390.665 410.958C390.101 409.962 389.819 408.84 389.819 407.592C389.819 406.344 390.101 405.228 390.665 404.244C391.241 403.248 392.015 402.474 392.987 401.922C393.971 401.358 395.057 401.076 396.245 401.076ZM396.245 403.938C395.237 403.938 394.433 404.268 393.833 404.928C393.245 405.576 392.951 406.464 392.951 407.592C392.951 408.708 393.245 409.596 393.833 410.256C394.433 410.916 395.237 411.246 396.245 411.246C397.241 411.246 398.039 410.916 398.639 410.256C399.239 409.596 399.539 408.708 399.539 407.592C399.539 406.476 399.239 405.588 398.639 404.928C398.051 404.268 397.253 403.938 396.245 403.938ZM408.936 403.83C410.232 403.83 411.318 404.19 412.194 404.91C413.07 405.618 413.622 406.596 413.85 407.844H410.592C410.496 407.412 410.298 407.076 409.998 406.836C409.698 406.596 409.32 406.476 408.864 406.476C408.324 406.476 407.88 406.692 407.532 407.124C407.184 407.544 407.01 408.162 407.01 408.978C407.01 409.794 407.184 410.418 407.532 410.85C407.88 411.27 408.324 411.48 408.864 411.48C409.32 411.48 409.698 411.36 409.998 411.12C410.298 410.88 410.496 410.544 410.592 410.112H413.85C413.622 411.36 413.07 412.344 412.194 413.064C411.318 413.772 410.232 414.126 408.936 414.126C407.952 414.126 407.076 413.922 406.308 413.514C405.552 413.094 404.958 412.494 404.526 411.714C404.094 410.934 403.878 410.022 403.878 408.978C403.878 407.922 404.088 407.01 404.508 406.242C404.94 405.462 405.54 404.868 406.308 404.46C407.076 404.04 407.952 403.83 408.936 403.83ZM424.997 408.708C424.997 408.96 424.967 409.236 424.907 409.536H417.941C417.977 410.292 418.169 410.838 418.517 411.174C418.865 411.498 419.309 411.66 419.849 411.66C420.305 411.66 420.683 411.546 420.983 411.318C421.283 411.09 421.481 410.796 421.577 410.436H424.835C424.703 411.144 424.415 411.78 423.971 412.344C423.527 412.896 422.963 413.334 422.279 413.658C421.595 413.97 420.833 414.126 419.993 414.126C419.009 414.126 418.133 413.922 417.365 413.514C416.609 413.094 416.015 412.494 415.583 411.714C415.151 410.934 414.935 410.022 414.935 408.978C414.935 407.922 415.145 407.01 415.565 406.242C415.997 405.462 416.597 404.868 417.365 404.46C418.133 404.04 419.009 403.83 419.993 403.83C420.989 403.83 421.865 404.034 422.621 404.442C423.377 404.85 423.959 405.426 424.367 406.17C424.787 406.902 424.997 407.748 424.997 408.708ZM421.883 408.24C421.895 407.58 421.715 407.088 421.343 406.764C420.983 406.428 420.533 406.26 419.993 406.26C419.429 406.26 418.961 406.428 418.589 406.764C418.217 407.1 418.007 407.592 417.959 408.24H421.883ZM430.417 403.83C431.185 403.83 431.845 404.004 432.397 404.352C432.949 404.7 433.357 405.174 433.621 405.774V403.956H436.681V414H433.621V412.182C433.357 412.782 432.949 413.256 432.397 413.604C431.845 413.952 431.185 414.126 430.417 414.126C429.589 414.126 428.845 413.922 428.185 413.514C427.537 413.094 427.021 412.494 426.637 411.714C426.265 410.934 426.079 410.022 426.079 408.978C426.079 407.922 426.265 407.01 426.637 406.242C427.021 405.462 427.537 404.868 428.185 404.46C428.845 404.04 429.589 403.83 430.417 403.83ZM431.407 406.53C430.747 406.53 430.213 406.746 429.805 407.178C429.409 407.61 429.211 408.21 429.211 408.978C429.211 409.746 429.409 410.346 429.805 410.778C430.213 411.21 430.747 411.426 431.407 411.426C432.055 411.426 432.583 411.204 432.991 410.76C433.411 410.316 433.621 409.722 433.621 408.978C433.621 408.222 433.411 407.628 432.991 407.196C432.583 406.752 432.055 406.53 431.407 406.53ZM445.172 403.848C446.324 403.848 447.236 404.232 447.908 405C448.592 405.768 448.934 406.824 448.934 408.168V414H445.856V408.528C445.856 407.856 445.676 407.334 445.316 406.962C444.968 406.578 444.5 406.386 443.912 406.386C443.288 406.386 442.79 406.584 442.418 406.98C442.058 407.376 441.878 407.94 441.878 408.672V414H438.8V403.956H441.878V405.792C442.166 405.192 442.592 404.718 443.156 404.37C443.732 404.022 444.404 403.848 445.172 403.848Z" fill="white"/>
<path d="M650.861 364.274V377H647.783V364.274H650.861ZM659.358 366.848C660.51 366.848 661.422 367.232 662.094 368C662.778 368.768 663.12 369.824 663.12 371.168V377H660.042V371.528C660.042 370.856 659.862 370.334 659.502 369.962C659.154 369.578 658.686 369.386 658.098 369.386C657.474 369.386 656.976 369.584 656.604 369.98C656.244 370.376 656.064 370.94 656.064 371.672V377H652.986V366.956H656.064V368.792C656.352 368.192 656.778 367.718 657.342 367.37C657.918 367.022 658.59 366.848 659.358 366.848ZM668.966 366.83C669.734 366.83 670.394 367.004 670.946 367.352C671.498 367.7 671.9 368.174 672.152 368.774V363.68H675.23V377H672.152V375.182C671.9 375.782 671.498 376.256 670.946 376.604C670.394 376.952 669.734 377.126 668.966 377.126C668.138 377.126 667.394 376.922 666.734 376.514C666.086 376.094 665.57 375.494 665.186 374.714C664.814 373.934 664.628 373.022 664.628 371.978C664.628 370.922 664.814 370.01 665.186 369.242C665.57 368.462 666.086 367.868 666.734 367.46C667.394 367.04 668.138 366.83 668.966 366.83ZM669.956 369.53C669.296 369.53 668.762 369.746 668.354 370.178C667.958 370.61 667.76 371.21 667.76 371.978C667.76 372.746 667.958 373.346 668.354 373.778C668.762 374.21 669.296 374.426 669.956 374.426C670.604 374.426 671.132 374.204 671.54 373.76C671.96 373.316 672.17 372.722 672.17 371.978C672.17 371.222 671.96 370.628 671.54 370.196C671.132 369.752 670.604 369.53 669.956 369.53ZM677.061 364.13C677.061 363.662 677.229 363.278 677.565 362.978C677.901 362.666 678.345 362.51 678.897 362.51C679.449 362.51 679.893 362.666 680.229 362.978C680.565 363.278 680.733 363.662 680.733 364.13C680.733 364.586 680.565 364.97 680.229 365.282C679.893 365.582 679.449 365.732 678.897 365.732C678.345 365.732 677.901 365.582 677.565 365.282C677.229 364.97 677.061 364.586 677.061 364.13ZM680.427 366.956V377H677.349V366.956H680.427ZM686.368 366.83C687.136 366.83 687.796 367.004 688.348 367.352C688.9 367.7 689.308 368.174 689.572 368.774V366.956H692.632V377H689.572V375.182C689.308 375.782 688.9 376.256 688.348 376.604C687.796 376.952 687.136 377.126 686.368 377.126C685.54 377.126 684.796 376.922 684.136 376.514C683.488 376.094 682.972 375.494 682.588 374.714C682.216 373.934 682.03 373.022 682.03 371.978C682.03 370.922 682.216 370.01 682.588 369.242C682.972 368.462 683.488 367.868 684.136 367.46C684.796 367.04 685.54 366.83 686.368 366.83ZM687.358 369.53C686.698 369.53 686.164 369.746 685.756 370.178C685.36 370.61 685.162 371.21 685.162 371.978C685.162 372.746 685.36 373.346 685.756 373.778C686.164 374.21 686.698 374.426 687.358 374.426C688.006 374.426 688.534 374.204 688.942 373.76C689.362 373.316 689.572 372.722 689.572 371.978C689.572 371.222 689.362 370.628 688.942 370.196C688.534 369.752 688.006 369.53 687.358 369.53ZM701.123 366.848C702.275 366.848 703.187 367.232 703.859 368C704.543 368.768 704.885 369.824 704.885 371.168V377H701.807V371.528C701.807 370.856 701.627 370.334 701.267 369.962C700.919 369.578 700.451 369.386 699.863 369.386C699.239 369.386 698.741 369.584 698.369 369.98C698.009 370.376 697.829 370.94 697.829 371.672V377H694.751V366.956H697.829V368.792C698.117 368.192 698.543 367.718 699.107 367.37C699.683 367.022 700.355 366.848 701.123 366.848ZM716.567 364.076C717.767 364.076 718.853 364.358 719.825 364.922C720.809 365.474 721.583 366.248 722.147 367.244C722.711 368.228 722.993 369.344 722.993 370.592C722.993 371.84 722.705 372.962 722.129 373.958C721.565 374.954 720.791 375.734 719.807 376.298C718.835 376.85 717.755 377.126 716.567 377.126C715.379 377.126 714.293 376.85 713.309 376.298C712.337 375.734 711.563 374.954 710.987 373.958C710.423 372.962 710.141 371.84 710.141 370.592C710.141 369.344 710.423 368.228 710.987 367.244C711.563 366.248 712.337 365.474 713.309 364.922C714.293 364.358 715.379 364.076 716.567 364.076ZM716.567 366.938C715.559 366.938 714.755 367.268 714.155 367.928C713.567 368.576 713.273 369.464 713.273 370.592C713.273 371.708 713.567 372.596 714.155 373.256C714.755 373.916 715.559 374.246 716.567 374.246C717.563 374.246 718.361 373.916 718.961 373.256C719.561 372.596 719.861 371.708 719.861 370.592C719.861 369.476 719.561 368.588 718.961 367.928C718.373 367.268 717.575 366.938 716.567 366.938ZM729.258 366.83C730.554 366.83 731.64 367.19 732.516 367.91C733.392 368.618 733.944 369.596 734.172 370.844H730.914C730.818 370.412 730.62 370.076 730.32 369.836C730.02 369.596 729.642 369.476 729.186 369.476C728.646 369.476 728.202 369.692 727.854 370.124C727.506 370.544 727.332 371.162 727.332 371.978C727.332 372.794 727.506 373.418 727.854 373.85C728.202 374.27 728.646 374.48 729.186 374.48C729.642 374.48 730.02 374.36 730.32 374.12C730.62 373.88 730.818 373.544 730.914 373.112H734.172C733.944 374.36 733.392 375.344 732.516 376.064C731.64 376.772 730.554 377.126 729.258 377.126C728.274 377.126 727.398 376.922 726.63 376.514C725.874 376.094 725.28 375.494 724.848 374.714C724.416 373.934 724.2 373.022 724.2 371.978C724.2 370.922 724.41 370.01 724.83 369.242C725.262 368.462 725.862 367.868 726.63 367.46C727.398 367.04 728.274 366.83 729.258 366.83ZM745.319 371.708C745.319 371.96 745.289 372.236 745.229 372.536H738.263C738.299 373.292 738.491 373.838 738.839 374.174C739.187 374.498 739.631 374.66 740.171 374.66C740.627 374.66 741.005 374.546 741.305 374.318C741.605 374.09 741.803 373.796 741.899 373.436H745.157C745.025 374.144 744.737 374.78 744.293 375.344C743.849 375.896 743.285 376.334 742.601 376.658C741.917 376.97 741.155 377.126 740.315 377.126C739.331 377.126 738.455 376.922 737.687 376.514C736.931 376.094 736.337 375.494 735.905 374.714C735.473 373.934 735.257 373.022 735.257 371.978C735.257 370.922 735.467 370.01 735.887 369.242C736.319 368.462 736.919 367.868 737.687 367.46C738.455 367.04 739.331 366.83 740.315 366.83C741.311 366.83 742.187 367.034 742.943 367.442C743.699 367.85 744.281 368.426 744.689 369.17C745.109 369.902 745.319 370.748 745.319 371.708ZM742.205 371.24C742.217 370.58 742.037 370.088 741.665 369.764C741.305 369.428 740.855 369.26 740.315 369.26C739.751 369.26 739.283 369.428 738.911 369.764C738.539 370.1 738.329 370.592 738.281 371.24H742.205ZM750.739 366.83C751.507 366.83 752.167 367.004 752.719 367.352C753.271 367.7 753.679 368.174 753.943 368.774V366.956H757.003V377H753.943V375.182C753.679 375.782 753.271 376.256 752.719 376.604C752.167 376.952 751.507 377.126 750.739 377.126C749.911 377.126 749.167 376.922 748.507 376.514C747.859 376.094 747.343 375.494 746.959 374.714C746.587 373.934 746.401 373.022 746.401 371.978C746.401 370.922 746.587 370.01 746.959 369.242C747.343 368.462 747.859 367.868 748.507 367.46C749.167 367.04 749.911 366.83 750.739 366.83ZM751.729 369.53C751.069 369.53 750.535 369.746 750.127 370.178C749.731 370.61 749.533 371.21 749.533 371.978C749.533 372.746 749.731 373.346 750.127 373.778C750.535 374.21 751.069 374.426 751.729 374.426C752.377 374.426 752.905 374.204 753.313 373.76C753.733 373.316 753.943 372.722 753.943 371.978C753.943 371.222 753.733 370.628 753.313 370.196C752.905 369.752 752.377 369.53 751.729 369.53ZM765.495 366.848C766.647 366.848 767.559 367.232 768.231 368C768.915 368.768 769.257 369.824 769.257 371.168V377H766.179V371.528C766.179 370.856 765.999 370.334 765.639 369.962C765.291 369.578 764.823 369.386 764.235 369.386C763.611 369.386 763.113 369.584 762.741 369.98C762.381 370.376 762.201 370.94 762.201 371.672V377H759.123V366.956H762.201V368.792C762.489 368.192 762.915 367.718 763.479 367.37C764.055 367.022 764.727 366.848 765.495 366.848Z" fill="white"/>
<defs>
<pattern id="pattern0" patternContentUnits="objectBoundingBox" width="1" height="1">
<use xlink:href="#image0" transform="scale(0.0005 0.000930233)"/>
</pattern>
<pattern id="pattern1" patternContentUnits="objectBoundingBox" width="1" height="1">
<use xlink:href="#image1" transform="scale(0.0005 0.000930233)"/>
</pattern>
</defs>
</svg>
