<svg width="121" height="100" viewBox="0 0 121 100" fill="none" xmlns="http://www.w3.org/2000/svg">
<path d="M68.5614 97.1303C95.8656 97.1303 118 82.5799 118 64.631C118 46.6822 95.8656 32.1318 68.5614 32.1318C41.2572 32.1318 19.1228 46.6822 19.1228 64.631C19.1228 82.5799 41.2572 97.1303 68.5614 97.1303Z" fill="#C4C4C4" stroke="#4F4F4F" stroke-width="4.16895" stroke-miterlimit="10"/>
<path d="M53.3001 33.6695L52.8513 21.8186C52.7872 20.4093 53.8986 19.2135 55.3093 19.1494L85.2974 17.9323C86.7081 17.8683 87.905 18.9786 87.9691 20.3879L88.0119 34.31C88.0333 34.7371 78.4576 32.4096 73.9263 32.2388C65.0132 31.9185 68.3903 32.3883 63.9872 32.3456C59.7338 32.3242 53.3001 34.0752 53.3001 33.6695Z" fill="#E4A03A" stroke="#4F4F4F" stroke-width="2.91827" stroke-miterlimit="10"/>
<path d="M70.0362 27.0072C71.0277 27.0072 71.8316 26.2042 71.8316 25.2136C71.8316 24.223 71.0277 23.4199 70.0362 23.4199C69.0446 23.4199 68.2407 24.223 68.2407 25.2136C68.2407 26.2042 69.0446 27.0072 70.0362 27.0072Z" stroke="#4F4F4F" stroke-width="1.66758" stroke-miterlimit="10"/>
<path d="M69.9721 30.2323C72.6517 30.2323 74.824 28.0622 74.824 25.3852C74.824 22.7082 72.6517 20.5381 69.9721 20.5381C67.2924 20.5381 65.1201 22.7082 65.1201 25.3852C65.1201 28.0622 67.2924 30.2323 69.9721 30.2323Z" stroke="#4F4F4F" stroke-width="2.50137" stroke-miterlimit="10"/>
<path d="M79.1201 6.82874C79.8756 6.82874 80.4881 5.89185 80.4881 4.73614C80.4881 3.58044 79.8756 2.64355 79.1201 2.64355C78.3646 2.64355 77.7522 3.58044 77.7522 4.73614C77.7522 5.89185 78.3646 6.82874 79.1201 6.82874Z" fill="#E4A03A" stroke="#4F4F4F" stroke-width="2.50137" stroke-miterlimit="10"/>
<path d="M78.5003 2.4731C78.5003 2.4731 69.288 0.0175053 68.6682 6.29528C68.0483 12.573 68.4972 18.1889 68.4972 18.1889L73.3491 18.0821C73.3491 18.0821 71.7674 7.89675 74.3323 7.5124C76.8972 7.12804 79.0988 6.85045 79.0988 6.85045C79.0988 6.85045 76.598 5.3771 78.5003 2.4731Z" fill="#C4C4C4" stroke="#4F4F4F" stroke-width="2.50137" stroke-miterlimit="10" stroke-linejoin="round"/>
<path d="M16.729 87.4579C16.729 87.4579 2.10902 89.0167 2.10902 87.6074L8.43579 67.1726C8.43579 65.7633 0.762439 47.6133 2.17314 47.6133L17.0069 46.8232C18.4176 46.8232 21.1535 53.3359 21.1535 54.7452L19.4863 59.4642L18.9092 65.7847L20.0634 71.0161L21.6664 74.9451C21.6664 76.3544 18.1397 87.4579 16.729 87.4579Z" fill="#E4A03A" stroke="#4F4F4F" stroke-width="2.91827" stroke-miterlimit="10" stroke-linejoin="round"/>
<path d="M40.6678 41.4417C40.9456 41.4417 41.1807 41.6766 41.1807 41.9542C41.1807 42.2318 40.9456 42.4667 40.6678 42.4667C40.3899 42.4667 40.1548 42.2318 40.1548 41.9542C40.1548 41.6766 40.3899 41.4417 40.6678 41.4417ZM40.6678 41.0146C40.1548 41.0146 39.7273 41.4417 39.7273 41.9542C39.7273 42.4666 40.1548 42.8937 40.6678 42.8937C41.1807 42.8937 41.6082 42.4666 41.6082 41.9542C41.6082 41.4417 41.1807 41.0146 40.6678 41.0146Z" fill="black"/>
<path d="M40.6253 48.0608C40.9031 48.0608 41.1383 48.2957 41.1383 48.5733C41.1383 48.8509 40.9031 49.0858 40.6253 49.0858C40.3474 49.0858 40.1123 48.8509 40.1123 48.5733C40.1123 48.2957 40.3474 48.0608 40.6253 48.0608ZM40.6253 47.6338C40.1123 47.6338 39.6848 48.0608 39.6848 48.5733C39.6848 49.0858 40.1123 49.5129 40.6253 49.5129C41.1383 49.5129 41.5657 49.0858 41.5657 48.5733C41.5657 48.0608 41.1383 47.6338 40.6253 47.6338Z" fill="black"/>
<path d="M40.5613 56.2396C40.8392 56.2396 41.0743 56.4744 41.0743 56.752C41.0743 57.0296 40.8392 57.2645 40.5613 57.2645C40.2834 57.2645 40.0483 57.0296 40.0483 56.752C40.0483 56.4744 40.2621 56.2396 40.5613 56.2396ZM40.5613 55.8125C40.0483 55.8125 39.6208 56.2396 39.6208 56.752C39.6208 57.2645 40.0483 57.6916 40.5613 57.6916C41.0743 57.6916 41.5018 57.2645 41.5018 56.752C41.4804 56.2396 41.0743 55.8125 40.5613 55.8125Z" fill="black"/>
<path d="M40.4974 62.9446C40.7752 62.9446 41.0103 63.1795 41.0103 63.4571C41.0103 63.7347 40.7752 63.9696 40.4974 63.9696C40.2195 63.9696 39.9844 63.7347 39.9844 63.4571C39.9844 63.1795 40.1981 62.9446 40.4974 62.9446ZM40.4974 62.5176C39.9844 62.5176 39.5569 62.9446 39.5569 63.4571C39.5569 63.9696 39.9844 64.3966 40.4974 64.3966C41.0103 64.3966 41.4378 63.9696 41.4378 63.4571C41.4378 62.9446 41.0103 62.5176 40.4974 62.5176Z" fill="black"/>
<path d="M47.4436 62.8597C47.7215 62.8597 47.9566 63.0946 47.9566 63.3721C47.9566 63.6497 47.7215 63.8846 47.4436 63.8846C47.1658 63.8846 46.9307 63.6497 46.9307 63.3721C46.9307 63.0946 47.1658 62.8597 47.4436 62.8597ZM47.4436 62.4326C46.9307 62.4326 46.5032 62.8597 46.5032 63.3721C46.5032 63.8846 46.9307 64.3117 47.4436 64.3117C47.9566 64.3117 48.3841 63.8846 48.3841 63.3721C48.3841 62.8597 47.9566 62.4326 47.4436 62.4326Z" fill="black"/>
<path d="M51.9961 62.6888C52.274 62.6888 52.5091 62.9237 52.5091 63.2013C52.5091 63.4788 52.274 63.7137 51.9961 63.7137C51.7183 63.7137 51.4831 63.4788 51.4831 63.2013C51.4831 62.9237 51.7183 62.6888 51.9961 62.6888ZM51.9961 62.2617C51.4831 62.2617 51.0557 62.6888 51.0557 63.2013C51.0557 63.7137 51.4831 64.1408 51.9961 64.1408C52.5091 64.1408 52.9366 63.7137 52.9366 63.2013C52.9366 62.6888 52.5091 62.2617 51.9961 62.2617Z" fill="black"/>
<path d="M66.4026 79.9407C66.6805 79.9407 66.9156 80.1756 66.9156 80.4532C66.9156 80.7308 66.6805 80.9657 66.4026 80.9657C66.1248 80.9657 65.8896 80.7308 65.8896 80.4532C65.8896 80.1756 66.1248 79.9407 66.4026 79.9407ZM66.4026 79.5137C65.8896 79.5137 65.4622 79.9407 65.4622 80.4532C65.4622 80.9657 65.8896 81.3927 66.4026 81.3927C66.9156 81.3927 67.3431 80.9657 67.3431 80.4532C67.3431 79.9407 66.9156 79.5137 66.4026 79.5137Z" fill="black"/>
<path d="M84.5921 60.1253C84.8699 60.1253 85.1051 60.3602 85.1051 60.6378C85.1051 60.9154 84.8699 61.1502 84.5921 61.1502C84.3142 61.1502 84.0791 60.9154 84.0791 60.6378C84.0791 60.3602 84.3142 60.1253 84.5921 60.1253ZM84.5921 59.6982C84.0791 59.6982 83.6516 60.1253 83.6516 60.6378C83.6516 61.1502 84.0791 61.5773 84.5921 61.5773C85.1051 61.5773 85.5325 61.1502 85.5325 60.6378C85.5325 60.1253 85.1051 59.6982 84.5921 59.6982Z" fill="black"/>
<path d="M68.9678 75.6929C75.9208 75.6929 81.5573 70.062 81.5573 63.116C81.5573 56.1699 75.9208 50.5391 68.9678 50.5391C62.0149 50.5391 56.3784 56.1699 56.3784 63.116C56.3784 70.062 62.0149 75.6929 68.9678 75.6929Z" stroke="#4F4F4F" stroke-width="2.91827" stroke-miterlimit="10"/>
<path d="M89.4656 59.7415C89.7435 59.7415 89.9786 59.9764 89.9786 60.254C89.9786 60.5316 89.7435 60.7665 89.4656 60.7665C89.1878 60.7665 88.9526 60.5316 88.9526 60.254C88.9526 59.9764 89.1878 59.7415 89.4656 59.7415ZM89.4656 59.3145C88.9526 59.3145 88.5251 59.7415 88.5251 60.254C88.5251 60.7665 88.9526 61.1935 89.4656 61.1935C89.9786 61.1935 90.4061 60.7665 90.4061 60.254C90.4061 59.7415 89.9786 59.3145 89.4656 59.3145Z" fill="black"/>
<path d="M94.7237 59.5286C95.0015 59.5286 95.2367 59.7635 95.2367 60.0411C95.2367 60.3187 95.0015 60.5536 94.7237 60.5536C94.4458 60.5536 94.2107 60.3187 94.2107 60.0411C94.2107 59.7635 94.4458 59.5286 94.7237 59.5286ZM94.7237 59.1016C94.2107 59.1016 93.7832 59.5286 93.7832 60.0411C93.7832 60.5536 94.2107 60.9806 94.7237 60.9806C95.2366 60.9806 95.6641 60.5536 95.6641 60.0411C95.6641 59.5286 95.2366 59.1016 94.7237 59.1016Z" fill="black"/>
<path d="M100.11 59.2503C100.388 59.2503 100.623 59.4852 100.623 59.7628C100.623 60.0404 100.388 60.2752 100.11 60.2752C99.8318 60.2752 99.5967 60.0404 99.5967 59.7628C99.5967 59.4852 99.8318 59.2503 100.11 59.2503ZM100.11 58.8232C99.5967 58.8232 99.1692 59.2503 99.1692 59.7628C99.1692 60.2752 99.5967 60.7023 100.11 60.7023C100.623 60.7023 101.05 60.2752 101.05 59.7628C101.05 59.2503 100.623 58.8232 100.11 58.8232Z" fill="black"/>
<path d="M107.74 50.4105C108.018 50.4105 108.253 50.6453 108.253 50.9229C108.253 51.2005 108.018 51.4354 107.74 51.4354C107.462 51.4354 107.227 51.2005 107.227 50.9229C107.227 50.6453 107.462 50.4105 107.74 50.4105ZM107.74 49.9834C107.227 49.9834 106.8 50.4105 106.8 50.9229C106.8 51.4354 107.227 51.8625 107.74 51.8625C108.253 51.8625 108.681 51.4354 108.681 50.9229C108.681 50.4105 108.253 49.9834 107.74 49.9834Z" fill="black"/>
<path d="M106.223 56.1321C106.501 56.1321 106.736 56.367 106.736 56.6446C106.736 56.9222 106.501 57.1571 106.223 57.1571C105.945 57.1571 105.71 56.9222 105.71 56.6446C105.71 56.367 105.945 56.1321 106.223 56.1321ZM106.223 55.7051C105.71 55.7051 105.282 56.1321 105.282 56.6446C105.282 57.1571 105.71 57.5841 106.223 57.5841C106.736 57.5841 107.163 57.1571 107.163 56.6446C107.163 56.1321 106.736 55.7051 106.223 55.7051Z" fill="black"/>
<path d="M105.56 62.8372C105.838 62.8372 106.073 63.0721 106.073 63.3497C106.073 63.6273 105.838 63.8622 105.56 63.8622C105.282 63.8622 105.047 63.6273 105.047 63.3497C105.047 63.0721 105.282 62.8372 105.56 62.8372ZM105.56 62.4102C105.047 62.4102 104.62 62.8372 104.62 63.3497C104.62 63.8622 105.047 64.2892 105.56 64.2892C106.073 64.2892 106.501 63.8622 106.501 63.3497C106.501 62.8372 106.073 62.4102 105.56 62.4102Z" fill="black"/>
<path d="M105.603 68.9651C105.881 68.9651 106.116 69.2 106.116 69.4776C106.116 69.7552 105.881 69.9901 105.603 69.9901C105.325 69.9901 105.09 69.7552 105.09 69.4776C105.09 69.2 105.325 68.9651 105.603 68.9651ZM105.603 68.5381C105.09 68.5381 104.662 68.9651 104.662 69.4776C104.662 69.9901 105.09 70.4171 105.603 70.4171C106.116 70.4171 106.543 69.9901 106.543 69.4776C106.543 68.9651 106.116 68.5381 105.603 68.5381Z" fill="black"/>
<path d="M106.629 74.5823C106.907 74.5823 107.142 74.8172 107.142 75.0948C107.142 75.3724 106.907 75.6073 106.629 75.6073C106.351 75.6073 106.116 75.3724 106.116 75.0948C106.116 74.8172 106.351 74.5823 106.629 74.5823ZM106.629 74.1553C106.116 74.1553 105.688 74.5823 105.688 75.0948C105.688 75.6073 106.116 76.0343 106.629 76.0343C107.142 76.0343 107.569 75.6073 107.569 75.0948C107.569 74.5823 107.142 74.1553 106.629 74.1553Z" fill="black"/>
<path d="M107.997 79.6214C108.275 79.6214 108.51 79.8563 108.51 80.1339C108.51 80.4115 108.275 80.6463 107.997 80.6463C107.719 80.6463 107.484 80.4115 107.484 80.1339C107.484 79.8563 107.719 79.6214 107.997 79.6214ZM107.997 79.1943C107.484 79.1943 107.057 79.6214 107.057 80.1339C107.057 80.6463 107.484 81.0734 107.997 81.0734C108.51 81.0734 108.938 80.6463 108.938 80.1339C108.938 79.6214 108.51 79.1943 107.997 79.1943Z" fill="black"/>
<path d="M66.4236 86.3899C66.7015 86.3899 66.9366 86.6248 66.9366 86.9024C66.9366 87.18 66.7015 87.4149 66.4236 87.4149C66.1458 87.4149 65.9106 87.18 65.9106 86.9024C65.9106 86.6035 66.1458 86.3899 66.4236 86.3899ZM66.4236 85.9629C65.9106 85.9629 65.4832 86.39 65.4832 86.9024C65.4832 87.4149 65.9106 87.842 66.4236 87.842C66.9366 87.842 67.3641 87.4149 67.3641 86.9024C67.3641 86.3686 66.9366 85.9629 66.4236 85.9629Z" fill="black"/>
<path d="M66.595 93.137C66.8729 93.137 67.108 93.3719 67.108 93.6495C67.108 93.9271 66.8729 94.162 66.595 94.162C66.3171 94.162 66.082 93.9271 66.082 93.6495C66.082 93.3719 66.3171 93.137 66.595 93.137ZM66.595 92.71C66.082 92.71 65.6545 93.137 65.6545 93.6495C65.6545 94.162 66.082 94.589 66.595 94.589C67.108 94.589 67.5355 94.162 67.5355 93.6495C67.5355 93.137 67.1294 92.71 66.595 92.71Z" fill="black"/>
<path d="M34.6619 63.2015C34.9398 63.2015 35.1749 63.4364 35.1749 63.7139C35.1749 63.9915 34.9398 64.2264 34.6619 64.2264C34.384 64.2264 34.1489 63.9915 34.1489 63.7139C34.1489 63.415 34.384 63.2015 34.6619 63.2015ZM34.6619 62.7744C34.1489 62.7744 33.7214 63.2015 33.7214 63.7139C33.7214 64.2264 34.1489 64.6535 34.6619 64.6535C35.1749 64.6535 35.6024 64.2264 35.6024 63.7139C35.6024 63.1801 35.1749 62.7744 34.6619 62.7744Z" fill="black"/>
<path d="M28.2498 63.3714C28.5277 63.3714 28.7628 63.6063 28.7628 63.8839C28.7628 64.1615 28.5277 64.3963 28.2498 64.3963C27.9719 64.3963 27.7368 64.1615 27.7368 63.8839C27.7368 63.5849 27.9719 63.3714 28.2498 63.3714ZM28.2498 62.9443C27.7368 62.9443 27.3093 63.3714 27.3093 63.8839C27.3093 64.3963 27.7368 64.8234 28.2498 64.8234C28.7628 64.8234 29.1903 64.3963 29.1903 63.8839C29.1903 63.35 28.7628 62.9443 28.2498 62.9443Z" fill="black"/>
<path d="M21.9866 63.3284C22.2645 63.3284 22.4996 63.5633 22.4996 63.8409C22.4996 64.1185 22.2645 64.3534 21.9866 64.3534C21.7087 64.3534 21.4736 64.1185 21.4736 63.8409C21.4736 63.5633 21.7087 63.3284 21.9866 63.3284ZM21.9866 62.9014C21.4736 62.9014 21.0461 63.3284 21.0461 63.8409C21.0461 64.3534 21.4736 64.7804 21.9866 64.7804C22.4996 64.7804 22.9271 64.3534 22.9271 63.8409C22.9271 63.3284 22.4996 62.9014 21.9866 62.9014Z" fill="black"/>
<path d="M68.775 72.0186C73.6857 72.0186 77.6667 68.0416 77.6667 63.1358C77.6667 58.2299 73.6857 54.2529 68.775 54.2529C63.8642 54.2529 59.8833 58.2299 59.8833 63.1358C59.8833 68.0416 63.8642 72.0186 68.775 72.0186Z" fill="#E4A03A" stroke="#4F4F4F" stroke-width="2.91827" stroke-miterlimit="10"/>
<path d="M107.377 44.3467C107.377 44.3467 96.4121 67.5787 106.885 86.0063" stroke="#4F4F4F" stroke-width="2.50137" stroke-miterlimit="10"/>
<path d="M102.375 62.0908L81.5569 62.8809" stroke="#4F4F4F" stroke-width="2.50137" stroke-miterlimit="10"/>
<path d="M69.6943 76.3965L69.9081 97.2583" stroke="#4F4F4F" stroke-width="2.50137" stroke-miterlimit="10"/>
<path d="M19.208 66.0841C19.208 66.0841 46.9945 66.8742 56.3992 65.7852" stroke="#4F4F4F" stroke-width="2.50137" stroke-miterlimit="10"/>
<path d="M43.2969 37.0869L43.4251 66.2337" stroke="#4F4F4F" stroke-width="2.50137" stroke-miterlimit="10"/>
</svg>
